<svg xmlns="http://www.w3.org/2000/svg" viewBox="0 0 20 20" width="20" height="20" preserveAspectRatio="xMidYMid meet" style="width: 100%; height: 100%; transform: translate3d(0px, 0px, 0px);"><defs><clipPath id="__lottie_element_39"><rect width="20" height="20" x="0" y="0"></rect></clipPath></defs><g clip-path="url(#__lottie_element_39)"><g transform="matrix(0.5,0,0,0.5,-0.25,0.18799972534179688)" opacity="1" style="display: block;"><g opacity="1" transform="matrix(1,0,0,1,20.531999588012695,19.4950008392334)"><path fill="rgb(168,168,168)" fill-opacity="1" d=" M19.957000732421875,-4.13100004196167 C20.035999298095703,-4.677999973297119 19.65399932861328,-5.188000202178955 19.106000900268555,-5.26800012588501 C19.106000900268555,-5.26800012588501 6.5269999504089355,-7.046999931335449 6.5269999504089355,-7.046999931335449 C6.5269999504089355,-7.046999931335449 0.8650000095367432,-18.493999481201172 0.8650000095367432,-18.493999481201172 C0.7749999761581421,-18.645000457763672 0.6480000019073486,-18.77199935913086 0.4970000088214874,-18.860000610351562 C0.3370000123977661,-18.954999923706055 0.15399999916553497,-19.0049991607666 -0.03200000151991844,-19.0049991607666 C-0.39899998903274536,-19.0049991607666 -0.7429999709129333,-18.80900001525879 -0.9340000152587891,-18.48699951171875 C-0.9340000152587891,-18.48699951171875 -6.517000198364258,-7.1020002365112305 -6.517000198364258,-7.1020002365112305 C-6.517000198364258,-7.1020002365112305 -19.172000885009766,-5.26800012588501 -19.172000885009766,-5.26800012588501 C-19.389999389648438,-5.236000061035156 -19.5939998626709,-5.131999969482422 -19.746999740600586,-4.974999904632568 C-19.934999465942383,-4.7829999923706055 -20.035999298095703,-4.53000020980835 -20.031999588012695,-4.263000011444092 C-20.02899932861328,-3.994999885559082 -19.92099952697754,-3.74399995803833 -19.729000091552734,-3.558000087738037 C-19.729000091552734,-3.558000087738037 -10.60099983215332,5.258999824523926 -10.60099983215332,5.258999824523926 C-10.60099983215332,5.258999824523926 -12.762999534606934,17.83300018310547 -12.762999534606934,17.83300018310547 C-12.800000190734863,18.048999786376953 -12.763999938964844,18.27400016784668 -12.661999702453613,18.4689998626709 C-12.487000465393066,18.798999786376953 -12.147000312805176,19.0049991607666 -11.772000312805176,19.0049991607666 C-11.609999656677246,19.0049991607666 -11.449000358581543,18.96500015258789 -11.305000305175781,18.889999389648438 C-11.305000305175781,18.889999389648438 -0.07900000363588333,12.95300006866455 -0.07900000363588333,12.95300006866455 C-0.07900000363588333,12.95300006866455 11.239999771118164,18.889999389648438 11.239999771118164,18.889999389648438 C11.383999824523926,18.96500015258789 11.545000076293945,19.0049991607666 11.706999778747559,19.0049991607666 C11.765000343322754,19.0049991607666 11.821000099182129,19 11.876999855041504,18.989999771118164 C12.142000198364258,18.94499969482422 12.373000144958496,18.798999786376953 12.527999877929688,18.579999923706055 C12.682999610900879,18.36199951171875 12.743000030517578,18.097000122070312 12.697999954223633,17.83300018310547 C12.697999954223633,17.83300018310547 10.506999969482422,5.3470001220703125 10.506999969482422,5.3470001220703125 C10.506999969482422,5.3470001220703125 19.663999557495117,-3.558000087738037 19.663999557495117,-3.558000087738037 C19.820999145507812,-3.7100000381469727 19.926000595092773,-3.9140000343322754 19.957000732421875,-4.13100004196167z M0.4350000023841858,10.956999778747559 C0.29100000858306885,10.881999969482422 0.1289999932050705,10.843000411987305 -0.032999999821186066,10.843000411987305 C-0.1940000057220459,10.843000411987305 -0.35600000619888306,10.881999969482422 -0.5,10.956999778747559 C-0.5,10.956999778747559 -10.437999725341797,16.170000076293945 -10.437999725341797,16.170000076293945 C-10.437999725341797,16.170000076293945 -8.539999961853027,5.130000114440918 -8.539999961853027,5.130000114440918 C-8.484000205993652,4.804999828338623 -8.592000007629395,4.4730000495910645 -8.829000473022461,4.243000030517578 C-8.829000473022461,4.243000030517578 -16.868999481201172,-3.5759999752044678 -16.868999481201172,-3.5759999752044678 C-16.868999481201172,-3.5759999752044678 -5.757999897003174,-5.185999870300293 -5.757999897003174,-5.185999870300293 C-5.429999828338623,-5.234000205993652 -5.1479997634887695,-5.439000129699707 -5.000999927520752,-5.735000133514404 C-5.000999927520752,-5.735000133514404 -0.032999999821186066,-15.779000282287598 -0.032999999821186066,-15.779000282287598 C-0.032999999821186066,-15.779000282287598 4.934999942779541,-5.735000133514404 4.934999942779541,-5.735000133514404 C5.083000183105469,-5.439000129699707 5.364999771118164,-5.234000205993652 5.691999912261963,-5.185999870300293 C5.691999912261963,-5.185999870300293 16.804000854492188,-3.5759999752044678 16.804000854492188,-3.5759999752044678 C16.804000854492188,-3.5759999752044678 8.763999938964844,4.243000030517578 8.763999938964844,4.243000030517578 C8.527000427246094,4.473999977111816 8.418999671936035,4.804999828338623 8.475000381469727,5.130000114440918 C8.475000381469727,5.130000114440918 10.373000144958496,16.170000076293945 10.373000144958496,16.170000076293945 C10.373000144958496,16.170000076293945 0.4350000023841858,10.956999778747559 0.4350000023841858,10.956999778747559z"></path></g></g><g transform="matrix(0,0,0,0,10,9.932999610900879)" opacity="1" style="display: block;"><g opacity="1" transform="matrix(1,0,0,1,20.531999588012695,19.4950008392334)"><path fill="rgb(48,48,48)" fill-opacity="1" d=" M19.957000732421875,-4.13100004196167 C20.035999298095703,-4.677999973297119 19.65399932861328,-5.188000202178955 19.106000900268555,-5.267000198364258 C19.106000900268555,-5.267000198364258 6.5269999504089355,-7.046999931335449 6.5269999504089355,-7.046999931335449 C6.5269999504089355,-7.046999931335449 0.8650000095367432,-18.493999481201172 0.8650000095367432,-18.493999481201172 C0.7749999761581421,-18.643999099731445 0.6480000019073486,-18.770999908447266 0.49799999594688416,-18.860000610351562 C0.3370000123977661,-18.95400047302246 0.15399999916553497,-19.0049991607666 -0.03200000151991844,-19.0049991607666 C-0.39899998903274536,-19.0049991607666 -0.7429999709129333,-18.80900001525879 -0.9340000152587891,-18.48699951171875 C-0.9340000152587891,-18.48699951171875 -6.517000198364258,-7.1020002365112305 -6.517000198364258,-7.1020002365112305 C-6.517000198364258,-7.1020002365112305 -19.172000885009766,-5.267000198364258 -19.172000885009766,-5.267000198364258 C-19.389999389648438,-5.235000133514404 -19.5939998626709,-5.131999969482422 -19.746999740600586,-4.974999904632568 C-19.934999465942383,-4.7829999923706055 -20.035999298095703,-4.53000020980835 -20.031999588012695,-4.26200008392334 C-20.02899932861328,-3.99399995803833 -19.92099952697754,-3.74399995803833 -19.729000091552734,-3.556999921798706 C-19.729000091552734,-3.556999921798706 -10.60099983215332,5.258999824523926 -10.60099983215332,5.258999824523926 C-10.60099983215332,5.258999824523926 -12.762999534606934,17.83300018310547 -12.762999534606934,17.83300018310547 C-12.800000190734863,18.048999786376953 -12.763999938964844,18.274999618530273 -12.661999702453613,18.4689998626709 C-12.487000465393066,18.799999237060547 -12.147000312805176,19.0049991607666 -11.772000312805176,19.0049991607666 C-11.609999656677246,19.0049991607666 -11.449000358581543,18.96500015258789 -11.305000305175781,18.889999389648438 C-11.305000305175781,18.889999389648438 -0.07900000363588333,12.95300006866455 -0.07900000363588333,12.95300006866455 C-0.07900000363588333,12.95300006866455 11.239999771118164,18.889999389648438 11.239999771118164,18.889999389648438 C11.383999824523926,18.96500015258789 11.545000076293945,19.0049991607666 11.706999778747559,19.0049991607666 C11.765000343322754,19.0049991607666 11.821000099182129,19 11.876999855041504,18.990999221801758 C12.142000198364258,18.945999145507812 12.373000144958496,18.799999237060547 12.527999877929688,18.579999923706055 C12.682999610900879,18.363000869750977 12.743000030517578,18.097000122070312 12.697999954223633,17.83300018310547 C12.697999954223633,17.83300018310547 10.506999969482422,5.3480000495910645 10.506999969482422,5.3480000495910645 C10.506999969482422,5.3480000495910645 19.663999557495117,-3.556999921798706 19.663999557495117,-3.556999921798706 C19.820999145507812,-3.7100000381469727 19.926000595092773,-3.9140000343322754 19.957000732421875,-4.13100004196167z"></path></g></g></g></svg>